PathFileType	4	(X/Y/Z)	C:/Users/opensim2020/Desktop/walking_exp_matlab/subject01_walking09_straight_03.trc	
DataRate	CameraRate	NumFrames	NumMarkers	Units	OrigDataRate	OrigDataStartFrame	OrigNumFrames	
100.00	100.00	7	43	mm	100.00	2974	348	
Frame#	Time	LFHD			RFHD			LBHD			RBHD			C7			T10			CLAV			STRN			RBAK			LSHO			LUPA			LELB			LFRM			LWRA			LWRB			LFIN			RSHO			RUPA			RELB			RFRM			RWRA			RWRB			RFIN			LASI			RASI			LPSI			RPSI			LTHI			LKNE			LTIB			LANK			LHEE			LTOE			RTHI			RKNE			RTIB			RANK			RHEE			RTOE			*39			*40			*41			*42			
		X1	Y1	Z1	X2	Y2	Z2	X3	Y3	Z3	X4	Y4	Z4	X5	Y5	Z5	X6	Y6	Z6	X7	Y7	Z7	X8	Y8	Z8	X9	Y9	Z9	X10	Y10	Z10	X11	Y11	Z11	X12	Y12	Z12	X13	Y13	Z13	X14	Y14	Z14	X15	Y15	Z15	X16	Y16	Z16	X17	Y17	Z17	X18	Y18	Z18	X19	Y19	Z19	X20	Y20	Z20	X21	Y21	Z21	X22	Y22	Z22	X23	Y23	Z23	X24	Y24	Z24	X25	Y25	Z25	X26	Y26	Z26	X27	Y27	Z27	X28	Y28	Z28	X29	Y29	Z29	X30	Y30	Z30	X31	Y31	Z31	X32	Y32	Z32	X33	Y33	Z33	X34	Y34	Z34	X35	Y35	Z35	X36	Y36	Z36	X37	Y37	Z37	X38	Y38	Z38	X39	Y39	Z39	X40	Y40	Z40	X41	Y41	Z41	X42	Y42	Z42	X43	Y43	Z43	

131	1.300	-1062.60291	-349.98944	1678.87366	-949.80237	-338.83377	1689.35254	-1054.53235	-453.86353	1609.96411	-934.55103	-444.80716	1618.91626	-1010.39093	-460.39969	1430.05481	-999.44489	-486.47208	1136.79248	-1005.72015	-313.59830	1368.93384	-1009.86548	-265.99997	1214.16821	-930.74872	-508.73221	1234.51868	-1167.60034	-370.50656	1395.20374	-1253.68616	-386.00421	1210.47192	-1258.98877	-387.21936	1060.22388	-1280.38171	-339.22510	955.80707	-1253.33630	-257.24377	845.52570	-1285.88672	-307.18146	838.06226	-1291.34863	-253.42589	772.76044	-855.45660	-380.15216	1393.38440	-752.76617	-427.80569	1190.85168	-750.13763	-420.42313	1066.01660	-720.72821	-386.82092	950.57715	-744.97675	-303.26740	836.58881	-702.81049	-343.72653	836.83026	-707.47662	-304.01874	759.33191	-1106.66528	-308.91370	931.77802	-888.14789	-306.83932	937.82538	-1052.56189	-495.48032	939.39880	-907.45392	-493.21124	946.45258	-1174.83032	-306.46393	600.99213	-1170.04663	-310.23148	467.34387	-1179.15637	-452.87500	348.91202	-1132.73376	-609.20691	196.82961	-1074.42273	-656.00897	201.99023	-1145.32837	-544.04694	67.24642	-839.88611	-336.48776	602.96344	-870.87927	-312.73721	446.37445	-869.44702	-359.46338	274.72925	-928.18738	-375.44510	72.49461	-980.89612	-422.13766	34.67144	-924.98425	-234.28255	34.50356	-972.71283	-357.74448	1718.94812	-3101.96655	1972.98828	1023.83948	-3140.71655	2012.55237	1021.95941			 
132	1.310	-1061.08972	-343.58176	1679.08984	-948.47479	-332.29703	1689.57837	-1053.15454	-447.57224	1610.43298	-933.22668	-438.47803	1619.26770	-1009.01703	-454.54489	1430.45898	-998.22766	-480.80872	1137.24976	-1004.07288	-307.73001	1369.04016	-1008.44495	-260.25354	1214.29810	-929.48181	-502.95795	1234.96851	-1166.34253	-364.62091	1395.45020	-1252.19287	-381.34140	1210.68921	-1257.22144	-383.50583	1060.53735	-1278.77747	-336.70413	955.61292	-1251.89185	-256.39069	844.17987	-1284.56458	-306.25784	837.46442	-1290.13403	-253.30397	771.40796	-854.13422	-374.16055	1393.61499	-751.04572	-420.22632	1191.04956	-748.01367	-412.16391	1066.33435	-718.66687	-377.54855	951.12347	-743.22595	-293.36893	837.83374	-700.66016	-333.30688	837.72180	-705.41754	-293.36243	760.61084	-1104.83984	-302.94720	932.44409	-886.27850	-301.68735	938.02435	-1051.86670	-489.58484	939.82727	-906.76538	-488.39957	946.55261	-1174.00708	-296.53589	602.53168	-1169.22815	-298.16617	469.03537	-1177.58032	-440.04666	350.08337	-1130.50793	-595.28357	196.70491	-1071.94275	-642.33374	200.19644	-1144.46875	-526.85150	69.02059	-839.13983	-333.17776	602.87122	-870.13800	-310.91995	446.02783	-869.03912	-358.51270	274.65793	-928.17261	-375.40491	72.44028	-980.97504	-422.01108	34.88460	-924.90802	-234.28264	34.47528	-971.41901	-351.10666	1719.10083	-3101.87378	1973.17017	1023.51898	-3140.64795	2012.46912	1021.94745			 
133	1.320	-1059.89648	-337.12439	1679.37720	-947.20038	-325.80637	1689.72900	-1051.81519	-441.30930	1610.90710	-931.79004	-432.05798	1619.74084	-1007.80640	-448.60712	1430.94873	-997.16925	-475.16492	1137.60840	-1003.25580	-301.69540	1369.27222	-1007.00842	-254.54243	1214.44165	-928.27502	-497.28644	1235.47607	-1165.14807	-358.80673	1395.72314	-1250.75134	-376.68344	1210.89282	-1255.49780	-379.81265	1060.80286	-1277.47766	-334.45065	955.52332	-1251.13269	-254.84375	843.20038	-1283.30078	-305.22998	836.95496	-1289.06360	-253.15346	770.18256	-852.96912	-368.21274	1393.88391	-749.38733	-412.71960	1191.27112	-746.01556	-403.92654	1066.62756	-716.60626	-368.21463	951.82214	-741.62451	-283.64282	839.11890	-698.74469	-323.35651	838.71368	-703.43811	-282.73901	761.86334	-1103.14636	-296.97369	933.11963	-884.58728	-296.66879	938.05121	-1051.25378	-483.76862	940.23474	-906.09241	-483.26941	946.58643	-1173.14319	-286.90228	604.07355	-1168.06665	-286.19986	470.65228	-1176.01514	-427.24799	350.92239	-1128.38965	-580.92993	195.57117	-1069.58997	-628.18463	197.80966	-1143.63379	-508.91605	70.56120	-838.50287	-330.08508	602.73383	-869.53510	-309.16348	445.68369	-868.76166	-357.41632	274.52722	-928.13263	-375.43616	72.49955	-981.06659	-421.73126	34.53712	-924.83490	-234.24811	34.39774	-970.07324	-344.56699	1719.43433	-3102.02832	1973.17212	1023.42194	-3140.73511	2012.56702	1022.01440			 
134	1.330	-1058.54211	-330.63037	1679.61255	-945.87891	-319.27231	1689.98315	-1050.57629	-435.03293	1611.45471	-930.52527	-425.70950	1620.20691	-1006.56641	-442.62234	1431.25305	-996.17664	-469.49014	1137.97668	-1001.69446	-295.92963	1369.43579	-1005.59448	-248.83342	1214.59082	-927.11188	-491.83417	1235.93335	-1164.04041	-352.79669	1396.01624	-1249.31189	-372.00101	1211.10400	-1253.88123	-376.08795	1061.16125	-1275.88232	-331.80783	955.42389	-1250.01782	-253.59779	842.11725	-1282.09265	-304.09576	836.54572	-1287.85754	-252.92474	768.94659	-851.75269	-362.50330	1394.21033	-747.84753	-405.31723	1191.45935	-744.04224	-395.71130	1066.98206	-714.58539	-358.78683	952.73834	-739.85907	-273.82394	840.27722	-696.75165	-313.11212	839.76862	-701.52478	-271.82373	763.30713	-1101.44763	-291.19852	933.84589	-882.94366	-291.64029	938.11938	-1050.62915	-478.04205	940.68927	-905.52423	-478.20294	946.62280	-1172.30798	-277.37064	605.41418	-1167.26868	-274.68195	472.27768	-1174.43689	-414.40805	351.34244	-1126.45764	-565.89880	193.82588	-1067.51404	-613.44141	194.48225	-1142.63037	-490.22327	71.43494	-837.94275	-326.96722	602.49023	-868.94806	-307.22586	445.30637	-868.37970	-356.48148	274.51178	-928.09802	-375.39740	72.48846	-981.13190	-421.59720	34.89526	-924.79706	-234.28603	34.38821	-968.89453	-337.93689	1719.60767	-3101.97900	1973.16357	1023.41144	-3140.70166	2012.58472	1022.01080			 
135	1.340	-1057.39941	-324.11011	1679.82239	-944.70898	-312.78033	1690.09570	-1049.36157	-428.64688	1611.91052	-929.33856	-419.33414	1620.65698	-1005.41211	-436.64102	1431.57629	-995.11218	-463.89539	1138.35999	-1000.53485	-290.07022	1369.63184	-1004.30280	-243.09180	1214.77332	-926.10065	-486.14880	1236.33032	-1162.90076	-347.10217	1396.21289	-1247.99304	-367.22702	1211.30725	-1252.34167	-372.38507	1061.44385	-1274.47400	-329.28076	955.32306	-1248.97253	-252.26978	841.14038	-1280.96313	-302.89066	836.17584	-1286.69531	-252.50226	767.90515	-850.72650	-356.75668	1394.40405	-746.33752	-398.13623	1191.69507	-742.15552	-387.55249	1067.37268	-712.79163	-349.62469	953.48663	-738.33923	-263.88461	841.63586	-694.99103	-302.88950	840.91089	-699.67657	-261.04807	764.73151	-1099.98865	-285.47531	934.53009	-881.36823	-286.43781	938.22308	-1050.01733	-472.35190	941.10138	-904.81506	-472.83496	946.63837	-1171.16260	-268.12521	607.08160	-1165.93396	-263.29062	473.82349	-1172.80859	-401.62466	351.36325	-1124.61047	-550.29431	191.34181	-1065.61951	-598.02307	190.36931	-1141.77063	-470.65408	71.62703	-837.32043	-323.84280	602.45367	-868.83942	-305.40591	445.02713	-868.06952	-355.34695	274.45538	-928.11145	-375.35159	72.48247	-981.14484	-421.68152	34.92609	-924.73621	-234.25377	34.35570	-967.52429	-331.30960	1719.98633	-3101.87183	1973.15125	1023.62360	-3140.81128	2012.53796	1022.02716			 
136	1.350	-1056.30298	-317.59802	1680.03943	-943.60980	-306.17099	1690.30066	-1048.22620	-422.28995	1612.40173	-928.20117	-412.96393	1621.12610	-1004.38397	-430.71671	1431.89124	-994.05322	-458.26929	1138.75330	-999.73798	-284.16516	1369.82300	-1003.05707	-237.34172	1214.89111	-925.08783	-480.48276	1236.72192	-1161.79480	-341.26492	1396.44312	-1246.81934	-362.36838	1211.51160	-1250.77991	-368.68240	1061.72229	-1273.29541	-326.93774	955.26764	-1247.53015	-251.16153	840.00037	-1279.78430	-301.60886	835.83148	-1285.41443	-252.03351	766.80768	-849.63116	-350.99509	1394.71960	-744.92255	-391.04660	1191.90198	-740.34161	-379.49084	1067.73401	-711.00690	-340.33276	954.23779	-736.62469	-253.73364	842.97864	-693.26129	-292.82980	842.08038	-698.03204	-250.60094	766.20294	-1098.58911	-279.76620	935.15582	-879.94128	-281.31815	938.14404	-1049.36987	-466.74341	941.59869	-904.08600	-467.71573	946.89655	-1170.32239	-259.14267	608.53510	-1164.72888	-252.27000	475.54950	-1171.07922	-388.54742	350.83047	-1122.99146	-534.20032	188.18207	-1063.90283	-582.06079	185.65933	-1140.75854	-450.92014	71.20170	-836.80945	-320.87634	602.33667	-868.14789	-303.69250	444.67731	-867.75421	-354.19379	274.36032	-928.18762	-375.37296	72.53120	-981.30499	-421.57785	34.97735	-924.70532	-234.22571	34.32194	-966.47583	-324.73141	1720.11426	-3101.87573	1973.19958	1023.51868	-3140.58325	2012.51831	1022.02094			 
137	1.360	-1055.20154	-311.08908	1680.20703	-942.47070	-299.62137	1690.47461	-1047.24414	-416.03543	1612.92493	-927.22833	-406.59161	1621.52710	-1003.29205	-424.67160	1432.15210	-993.03040	-452.58362	1139.10156	-998.38104	-278.38937	1369.97339	-1001.88013	-231.65831	1215.02393	-924.00458	-474.70547	1237.07983	-1160.81250	-335.44135	1396.63745	-1245.62720	-357.44644	1211.69568	-1249.33020	-365.00970	1062.01550	-1272.13293	-324.41113	955.29126	-1246.43994	-249.70973	839.06134	-1278.66687	-300.20343	835.51563	-1284.01453	-251.39023	765.77332	-848.59937	-345.26031	1395.09021	-743.55414	-384.02460	1192.15112	-738.67065	-371.47556	1068.10876	-709.38538	-331.24869	954.97125	-735.32080	-243.80624	844.62665	-691.63525	-282.98746	843.26990	-696.46753	-240.01459	767.67432	-1097.15259	-274.03329	936.01495	-878.68134	-276.31232	937.99622	-1048.69458	-461.20776	942.06696	-903.45776	-462.52075	947.01855	-1169.45044	-250.06891	610.08368	-1163.59900	-241.55013	477.27118	-1169.49768	-375.30246	349.88065	-1121.35632	-517.57294	184.26393	-1062.19287	-565.52588	180.06943	-1140.07178	-430.56802	70.68747	-836.35449	-317.76544	602.10156	-868.20343	-301.93759	444.29950	-867.56714	-353.20166	274.31671	-928.22394	-375.56415	72.41818	-981.36475	-421.54520	35.27647	-924.67682	-234.22208	34.30566	-965.49164	-318.27356	1720.40259	-3101.96265	1973.01343	1023.70581	-3140.76367	2012.47876	1021.92761			 
